<?xml version="1.0" encoding="UTF-8"?>
<svg width="131px" height="126px" viewBox="0 0 131 126" version="1.1" xmlns="http://www.w3.org/2000/svg" xmlns:xlink="http://www.w3.org/1999/xlink">
    <!-- Generator: Sketch 50.2 (55047) - http://www.bohemiancoding.com/sketch -->
    <title>add-team-image</title>
    <desc>Created with Sketch.</desc>
    <defs></defs>
    <g id="team" stroke="none" stroke-width="1" fill="none" fill-rule="evenodd">
        <g id="index" transform="translate(-200.000000, -305.000000)">
            <g id="Group-3" transform="translate(156.000000, 254.000000)">
                <g id="add-team-image" transform="translate(45.000000, 51.000000)">
                    <g id="add-server-image">
                        <ellipse id="Oval" fill="#268FF4" fill-rule="nonzero" cx="65.5" cy="99.5" rx="47.5" ry="7.5"></ellipse>
                        <g id="bg">
                            <path d="M49.848,72.737 C48.966,70.312 50.031,68.087 52.388,67.227 C54.746,66.37 57.372,67.64 58.254,70.064 C59.136,72.488 57.859,74.926 55.684,76.278" id="Shape" stroke="#363C50" stroke-width="2" stroke-linecap="round"></path>
                            <path d="M50.26,84.475 L70.086,99.587 L61.864,102.58 L49.584,98.45 C47.492,97.747 46.389,95.49 47.124,93.4 L50.26,84.475 Z" id="Shape" fill="#0082FF" fill-rule="nonzero"></path>
                            <g id="Group" transform="translate(83.000000, 67.000000)" stroke="#0D84F5" stroke-linecap="round" stroke-width="2">
                                <path d="M0.644,3.27 C1.527,0.846 3.774,-0.174 6.131,0.684 C8.489,1.542 9.684,4.204 8.801,6.626 C7.921,9.05 5.375,10.096 2.838,9.734" id="Shape"></path>
                            </g>
                            <g id="Group">
                                <ellipse id="Oval" fill="#A0C4FC" fill-rule="nonzero" cx="101.348" cy="4.414" rx="2.804" ry="2.809"></ellipse>
                                <ellipse id="Oval" fill="#A0C4FC" fill-rule="nonzero" cx="12.418" cy="74.236" rx="2.804" ry="2.809"></ellipse>
                                <ellipse id="Oval" fill="#A0C4FC" fill-rule="nonzero" cx="10.816" cy="12.439" rx="2.003" ry="2.006"></ellipse>
                                <ellipse id="Oval" fill="#A0C4FC" fill-rule="nonzero" cx="61.289" cy="16.452" rx="2.003" ry="2.006"></ellipse>
                                <ellipse id="Oval" fill="#A0C4FC" fill-rule="nonzero" cx="122.98" cy="30.898" rx="1.202" ry="1.204"></ellipse>
                                <ellipse id="Oval" fill="#A0C4FC" fill-rule="nonzero" cx="20.83" cy="85.07" rx="1" ry="1"></ellipse>
                                <ellipse id="Oval" fill="#A0C4FC" fill-rule="nonzero" cx="4.006" cy="83.465" rx="1" ry="1"></ellipse>
                                <ellipse id="Oval" fill="#A0C4FC" fill-rule="nonzero" cx="1.602" cy="67.414" rx="1" ry="1"></ellipse>
                                <ellipse id="Oval" fill="#A0C4FC" fill-rule="nonzero" cx="99.345" cy="13.643" rx="1" ry="1"></ellipse>
                                <ellipse id="Oval" fill="#A0C4FC" fill-rule="nonzero" cx="127.386" cy="73.032" rx="1" ry="1"></ellipse>
                                <ellipse id="Oval" fill="#A0C4FC" fill-rule="nonzero" cx="37.655" cy="118.777" rx="1" ry="1"></ellipse>
                                <ellipse id="Oval" fill="#A0C4FC" fill-rule="nonzero" cx="29.243" cy="18.86" rx="1.202" ry="1.204"></ellipse>
                                <ellipse id="Oval" fill="#A0C4FC" fill-rule="nonzero" cx="5.208" cy="50.962" rx="1.202" ry="1.204"></ellipse>
                                <ellipse id="Oval" fill="#A0C4FC" fill-rule="nonzero" cx="38.056" cy="5.217" rx="1.202" ry="1.204"></ellipse>
                                <ellipse id="Oval" fill="#A0C4FC" fill-rule="nonzero" cx="126.985" cy="85.471" rx="2.804" ry="2.809"></ellipse>
                                <ellipse id="Oval" fill="#A0C4FC" fill-rule="nonzero" cx="106.956" cy="123.191" rx="2.804" ry="2.809"></ellipse>
                                <ellipse id="Oval" fill="#A0C4FC" fill-rule="nonzero" cx="26.038" cy="122.389" rx="2.804" ry="2.809"></ellipse>
                                <ellipse id="Oval" fill="#A0C4FC" fill-rule="nonzero" cx="83.722" cy="121.586" rx="2.003" ry="2.006"></ellipse>
                                <ellipse id="Oval" fill="#A0C4FC" fill-rule="nonzero" cx="71.705" cy="110.35" rx="2.003" ry="2.006"></ellipse>
                                <path d="M65.696,117.172 L60.889,121.987 M65.695,121.987 L60.888,117.172 M9.614,112.357 L4.807,117.172 M9.614,117.172 L4.807,112.357 M4.807,21.67 L0,26.483 M4.807,26.483 L0,21.67 M120.175,14.446 L116.971,17.656 M120.176,17.656 L116.972,14.446 M25.637,0 L21.632,4.013 M25.637,4.013 L21.632,0 M122.58,97.108 L117.772,101.924 M122.579,101.924 L117.771,97.108" id="Shape" stroke="#003EA0" stroke-width="0.8" stroke-linecap="round"></path>
                                <path d="M16.825,93.096 L10.415,99.516 M16.825,99.516 L10.415,93.096 M69.702,0.803 L63.292,7.223 M69.702,7.223 L63.292,0.803" id="Shape" stroke="#003EA0" stroke-width="1.6" stroke-linecap="round"></path>
                            </g>
                        </g>
                    </g>
                    <g id="group" transform="translate(25.000000, 23.000000)" fill-rule="nonzero">
                        <path d="M73.0301563,18.8604687 L58.036875,18.8604687 C57.19125,18.8604687 56.4992187,19.5523437 56.4992187,20.398125 C56.4992187,21.053125 56.4992187,30.924375 56.4992187,30.3345313 C56.4992187,31.2970313 57.279375,32.0773438 58.2420312,32.0773438 C72.1460937,32.0773438 71.1814062,31.9835938 71.5809375,32.360625 L73.7842187,34.4403125 C74.0804687,34.72 74.5676562,34.51 74.5676562,34.1025 C74.5676562,32.839375 74.5676562,19.5601562 74.5676562,20.3982813 C74.5678125,19.5523438 73.8757813,18.8604687 73.0301563,18.8604687 Z" id="Shape" fill="#F94A46"></path>
                        <path d="M6.8771875,18.8604687 L21.8704688,18.8604687 C22.7160938,18.8604687 23.408125,19.5523437 23.408125,20.398125 C23.408125,21.053125 23.408125,30.924375 23.408125,30.3345313 C23.408125,31.2970313 22.6279688,32.0773438 21.6653125,32.0773438 C8.1796875,32.0773438 8.76953125,31.9425 8.32640625,32.360625 L6.123125,34.4403125 C5.826875,34.72 5.3396875,34.51 5.3396875,34.1025 C5.3396875,32.839375 5.3396875,19.5601562 5.3396875,20.3982813 C5.3396875,19.5523438 6.0315625,18.8604687 6.8771875,18.8604687 Z" id="Shape" fill="#FFB70D"></path>
                        <path d="M49.3439063,1.17203125 L30.5632813,1.17203125 C29.2104688,1.17203125 28.10375,2.27890625 28.10375,3.6315625 L28.10375,16.4009375 C28.10375,17.75375 29.2104688,18.8604687 30.5632812,18.8604687 L37.3289063,18.8604687 L39.2395313,21.6240625 C39.6282813,22.18625 40.264375,22.18625 40.6532813,21.6240625 L42.5639063,18.8604687 L49.3440625,18.8604687 C50.696875,18.8604687 51.8035938,17.7535938 51.8035938,16.4009375 L51.8035938,3.6315625 C51.8034375,2.27875 50.6965625,1.17203125 49.3439063,1.17203125 Z" id="Shape" fill="#70B5E8"></path>
                        <g id="Group" transform="translate(56.406250, 18.750000)" fill="#ED3E3E">
                            <path d="M4.7571875,11.584375 C4.7571875,7.851875 4.7571875,5.354375 4.7571875,1.64796875 C4.7571875,0.80234375 5.4490625,0.1103125 6.29484375,0.1103125 L1.63046875,0.1103125 C0.78484375,0.1103125 0.0928125,0.8021875 0.0928125,1.64796875 C0.0928125,3.8528125 0.0928125,9.83609375 0.0928125,11.584375 C0.0928125,12.546875 0.873125,13.3271875 1.835625,13.3271875 C3.03625,13.3271875 5.30390625,13.3271875 6.5,13.3271875 C5.53765625,13.3271875 4.7571875,12.546875 4.7571875,11.584375 Z" id="Shape"></path>
                            <path d="M14.4617187,13.3271875 C15.1607812,13.3271875 15.2628125,13.8048438 17.3779687,15.6901563 C17.6742187,15.9698438 18.1614062,15.7596875 18.1614062,15.3523438 L18.1614062,13.3271875 L14.4617187,13.3271875 Z" id="Shape"></path>
                        </g>
                        <path d="M10.0042187,20.3979687 C10.0042187,19.5523437 10.6960937,18.8603125 11.541875,18.8603125 L6.87734375,18.8603125 C6.03171875,18.8603125 5.3396875,19.5521875 5.3396875,20.3979687 C5.3396875,22.04625 5.3396875,32.5214062 5.3396875,34.1021875 C5.3396875,34.5096875 5.826875,34.7196875 6.123125,34.44 C8.2390625,32.5540625 8.33984375,32.0770312 9.039375,32.0770312 L10.0039062,32.0770312 C10.0042187,28.3721875 10.0042187,24.0859375 10.0042187,20.3979687 Z" id="Shape" fill="#F2A306"></path>
                        <g id="Group" transform="translate(27.968750, 1.093750)" fill="#52A5D8">
                            <path d="M4.79953125,15.3071875 L4.79953125,2.5378125 C4.79953125,1.185 5.90640625,0.07828125 7.2590625,0.07828125 L2.5946875,0.07828125 C1.241875,0.07828125 0.13515625,1.18515625 0.13515625,2.5378125 L0.13515625,15.3071875 C0.13515625,16.66 1.24203125,17.7667187 2.5946875,17.7667187 L7.2590625,17.7667187 C5.90640625,17.7667187 4.79953125,16.6598437 4.79953125,15.3071875 Z" id="Shape"></path>
                            <path d="M14.0246875,17.7667187 L9.3603125,17.7667187 L11.2709375,20.5303125 C11.6596875,21.0925 12.2957812,21.0925 12.6846875,20.5303125 L14.3101562,18.1792188 L14.0246875,17.7667187 Z" id="Shape"></path>
                        </g>
                        <path d="M75.1329688,49.4167188 C74.5298437,37.5154688 57.6135938,35.6651563 54.4435938,47.1495313 C54.2689063,47.7845313 54.1548438,48.3776563 54.0975,49.1145313 C54.060625,49.5810938 54.0564063,51.9651562 54.0584375,53.3973438 L75.1485976,53.3973438 C75.1490625,49.6828125 75.1485938,49.73 75.1329688,49.4167188 Z" id="Shape" fill="#93482B"></path>
                        <path d="M62.0054688,47.1495312 C63.02375,43.4601562 65.4615625,41.1492187 68.3204688,40.1032812 C61.6907813,37.7351562 54.6640625,41.845625 54.0975,49.1145312 C54.060625,49.5810937 54.0564063,51.9651562 54.0584375,53.3973437 L61.6203125,53.3973437 C61.614375,49.3289062 61.5879688,48.6676562 62.0054688,47.1495312 Z" id="Shape" fill="#873921"></path>
                        <path d="M75.6884375,78.7609375 C77.5345312,78.7609375 78.94125,77.106875 78.6445312,75.2846875 L77.9054687,70.7428125 C77.6935937,69.6703125 77.5725,67.8870312 75.5184375,67.0235937 C75.3267187,66.943125 74.8901562,66.8228125 74.8989062,66.8253125 C65.8903125,63.643125 74.1810937,66.5715625 70.1965625,65.16875 L68.2009375,63.933125 L68.2009375,61.558125 C66.0596875,62.6359375 63.4317187,62.7189062 61.24375,61.7079687 L61.2451562,63.933125 L59.193125,65.1903125 L58.1357813,65.5539062 L58.1334375,65.5539062 L58.13375,65.5545312 C58.1178125,65.5601562 53.7882813,67.0934375 54.0742188,66.9651562 C52.9373438,67.3896875 51.97625,68.3242188 51.841875,69.6321875 C51.783125,70.203125 51.0417188,74.3575 50.5907813,76.8607813 C50.4123438,77.8509375 51.1734375,78.760625 52.1796875,78.760625 L75.6885937,78.760625 L75.6885937,78.7609375 L75.6884375,78.7609375 Z" id="Shape" fill="#EFEFEF"></path>
                        <path d="M64.6032813,67.2045313 L68.6553125,64.215 L68.2007813,63.9335938 L68.2007813,61.5585938 C66.0595313,62.6364063 63.4315625,62.719375 61.2435938,61.7084375 L61.245,63.9335938 L60.785625,64.215 L64.6032813,67.2045313 Z" id="Shape" fill="#EAB883"></path>
                        <path d="M64.624375,62.4154688 C63.464375,62.428125 62.3026563,62.1976563 61.2435938,61.7084375 L61.245,63.9335938 L60.785625,64.215 L64.5384375,67.1535938 L64.6245313,67.1535938 L64.624375,62.4154688 Z" id="Shape" fill="#E0A773"></path>
                        <g id="Group" transform="translate(59.062500, 63.906250)" fill="#DDDDDD">
                            <path d="M2.1825,0.02734375 L5.54078125,3.2984375 L2.54328125,5.38453125 C2.1059375,5.68890625 1.49875,5.485 1.3334375,4.97828125 L0.1303125,1.28453125 L2.1825,0.02734375 Z" id="Shape"></path>
                            <path d="M9.1384375,0.02734375 L5.54078125,3.2984375 L8.53828125,5.38453125 C8.975625,5.68890625 9.5828125,5.485 9.74796875,4.97828125 L11.1339063,1.26296875 L9.1384375,0.02734375 Z" id="Shape"></path>
                        </g>
                        <path d="M65.954375,71.8267187 C65.0095312,71.8267187 64.1975,71.8267187 63.2525,71.8267187 L61.3985938,78.7664062 C63.6409375,78.7664062 65.5657813,78.7664062 67.808125,78.7664062 L65.954375,71.8267187 Z" id="Shape" fill="#EF3C3C"></path>
                        <path d="M64.6032812,67.2045313 L62.0867188,68.9559375 L63.2525,71.8267187 C64.1973438,71.8267187 65.009375,71.8267187 65.9542188,71.8267187 L67.12,68.9559375 L64.6032812,67.2045313 Z" id="Shape" fill="#F94A46"></path>
                        <path d="M65.954375,71.8267187 C65.0095312,71.8267187 64.1975,71.8267187 63.2525,71.8267187 L61.3985938,78.7664062 L64.1015625,78.7664062 L65.9548437,71.82875 L65.954375,71.8267187 Z" id="Shape" fill="#DD2F2F"></path>
                        <path d="M64.1942188,67.4892187 L62.0867188,68.9559375 L63.2525,71.8267187 C64.1973438,71.8267187 65.009375,71.8267187 65.9542188,71.8267187 L65.9548438,71.8253125 L64.1942188,67.4892187 Z" id="Shape" fill="#ED3E3E"></path>
                        <g id="Group" transform="translate(53.125000, 51.875000)" fill="#EAB883">
                            <path d="M4.10015625,0.29578125 C2.2696875,-0.35640625 0.14359375,0.8565625 0.14359375,2.62640625 C0.14359375,4.39578125 2.269375,5.609375 4.10015625,4.95703125 L4.10015625,0.29578125 Z" id="Shape"></path>
                            <path d="M18.8598437,0.29578125 C20.6903125,-0.35640625 22.8164062,0.8565625 22.8164062,2.62640625 C22.8164062,4.39578125 20.690625,5.609375 18.8598437,4.95703125 L18.8598437,0.29578125 Z" id="Shape"></path>
                        </g>
                        <g id="Group" transform="translate(53.125000, 53.437500)" fill="#E0A773">
                            <path d="M0.4165625,0.01015625 C-0.70765625,2.06328125 1.755,4.23046875 4.10046875,3.3946875 L4.10046875,1.2871875 C2.664375,1.79890625 1.0471875,1.1621875 0.4165625,0.01015625 Z" id="Shape"></path>
                            <path d="M18.8598437,1.28703125 L18.8598437,3.39453125 C21.2051562,4.2303125 23.6678125,2.06328125 22.54375,0.01 C21.9129688,1.1621875 20.2959375,1.79890625 18.8598437,1.28703125 Z" id="Shape"></path>
                        </g>
                        <path d="M71.9167187,49.4132812 C72.1120312,49.4321875 72.2621875,49.5940625 72.2621875,49.7903125 C72.2621875,56.2373438 72.2664062,55.2948437 72.2514062,55.5945312 C71.8132812,64.23875 59.52625,65.5829687 57.2239062,57.24125 C57.0970312,56.78 57.0142187,56.349375 56.9725,55.8139062 C56.9296875,55.2725 56.9475,52.3332812 56.9475,52.3428125 C56.9475,50.8414062 58.28,49.6959375 59.7659375,49.9104687 C62.1064062,50.2482812 65.5225,50.1170312 68.5032812,47.5690625 C68.8095312,47.3073437 69.274375,47.391875 69.47,47.7440625 C69.8392187,48.4090625 70.57375,49.2835937 71.9167187,49.4132812 Z" id="Shape" fill="#F7CF9C"></path>
                        <path d="M61.643125,55.5945313 C61.6282812,55.29875 61.6321875,56.2115625 61.6323437,50.0451563 C60.9617187,50.0459375 60.3321875,49.9921875 59.7660937,49.9104688 C58.28,49.6959375 56.9476562,50.8414063 56.9476562,52.3428125 C56.9476562,52.3334375 56.9298437,55.2725 56.9726562,55.8139063 C57.3685937,60.8959375 62.153125,63.9420312 66.9475,62.47625 C64.1564063,61.6229688 61.8292187,59.2685938 61.643125,55.5945313 Z" id="Shape" fill="#EAB883"></path>
                        <path d="M25.5654688,49.4167188 C24.9623437,37.5154688 8.04609375,35.6651563 4.87609375,47.1495313 C4.41265625,48.8351563 4.48578125,49.7609375 4.4909375,53.3975 L25.5809375,53.3975 C25.5817188,49.6828125 25.58125,49.73 25.5654688,49.4167188 Z" id="Shape" fill="#93482B"></path>
                        <path d="M12.438125,47.1495312 C13.4564063,43.4601562 15.8942188,41.1492187 18.753125,40.1032812 C12.1234375,37.7351562 5.09671875,41.845625 4.53015625,49.1145312 C4.49328125,49.5810937 4.4890625,51.9651562 4.49109375,53.3973437 L12.0528125,53.3973437 C12.0471875,49.3289062 12.020625,48.6676562 12.438125,47.1495312 Z" id="Shape" fill="#873921"></path>
                        <path d="M26.1209375,78.7609375 C27.9670313,78.7609375 29.3735938,77.106875 29.0770313,75.2846875 L28.3379688,70.7428125 C28.1260938,69.6703125 28.005,67.8870312 25.9509375,67.0235937 C25.7592188,66.943125 25.3226563,66.8228125 25.3314063,66.8253125 C16.3228125,63.643125 24.6135938,66.5715625 20.6290625,65.16875 L18.6334375,63.933125 L18.6334375,61.558125 C16.4921875,62.6359375 13.8642188,62.7189062 11.67625,61.7079687 L11.6776563,63.933125 L9.625625,65.1903125 L8.56828125,65.5539062 L8.5659375,65.5539062 L8.56625,65.5545312 C8.5503125,65.5601562 4.22078125,67.0934375 4.50671875,66.9651562 C3.36984375,67.3896875 2.40875,68.3242188 2.274375,69.6321875 C2.2290625,70.0723438 1.77828125,72.64125 1.3675,74.9420312 C1.01203125,76.9328125 2.54265625,78.760625 4.56484375,78.760625 L26.1209375,78.7609375 Z" id="Shape" fill="#EFEFEF"></path>
                        <path d="M3.98359375,74.9426562 C3.98359375,74.9426562 4.84515625,69.1351562 4.89046875,68.6951562 C5.00828125,67.5489063 5.75078125,66.6948437 6.71796875,66.2078125 C4.4609375,67.0010937 4.491875,66.9723437 4.50671875,66.9657813 C3.36984375,67.3903125 2.40875,68.3245313 2.274375,69.6328125 C2.2290625,70.0729688 1.77828125,72.641875 1.3675,74.9426562 C1.01203125,76.9334375 2.54265625,78.76125 4.56484375,78.76125 L7.1809375,78.76125 C5.15859375,78.7609375 3.628125,76.9334375 3.98359375,74.9426562 Z" id="Shape" fill="#DDDDDD"></path>
                        <path d="M15.0359375,67.2045313 L19.0879688,64.215 L18.6334375,63.9335938 L18.6334375,61.5585938 C16.4921875,62.6364063 13.8642188,62.719375 11.67625,61.7084375 L11.6776563,63.9335938 L11.2182813,64.215 L15.0359375,67.2045313 Z" id="Shape" fill="#EAB883"></path>
                        <path d="M15.0570312,62.4154688 C13.8970312,62.428125 12.7353125,62.1976563 11.67625,61.7084375 L11.6776563,63.9335938 L11.2182813,64.215 L14.9710937,67.1535938 L15.0571875,67.1535938 L15.0570312,62.4154688 Z" id="Shape" fill="#E0A773"></path>
                        <g id="Group" transform="translate(9.531250, 63.906250)" fill="#DDDDDD">
                            <path d="M2.14625,0.02734375 L5.5046875,3.2984375 L2.5071875,5.384375 C2.06984375,5.68875 1.46265625,5.48484375 1.29734375,4.978125 L0.09421875,1.284375 L2.14625,0.02734375 Z" id="Shape"></path>
                            <path d="M9.10234375,0.02734375 L5.5046875,3.29828125 L8.5021875,5.384375 C8.93953125,5.68875 9.54671875,5.48484375 9.711875,4.978125 L11.0978125,1.2628125 L9.10234375,0.02734375 Z" id="Shape"></path>
                        </g>
                        <path d="M16.386875,71.8267187 C15.4420313,71.8267187 14.63,71.8267187 13.685,71.8267187 L11.83125,78.7665625 C14.0735938,78.7665625 15.9984375,78.7665625 18.2407813,78.7665625 L16.386875,71.8267187 Z" id="Shape" fill="#EF3C3C"></path>
                        <path d="M15.0359375,67.2045313 L12.519375,68.9559375 L13.6851562,71.8267187 C14.63,71.8267187 15.4420312,71.8267187 16.3870312,71.8267187 L17.5528125,68.9559375 L15.0359375,67.2045313 Z" id="Shape" fill="#F94A46"></path>
                        <path d="M16.386875,71.8267187 C15.4420313,71.8267187 14.63,71.8267187 13.685,71.8267187 L11.83125,78.7665625 L14.5342188,78.7665625 L16.3875,71.8289063 L16.386875,71.8267187 Z" id="Shape" fill="#DD2F2F"></path>
                        <path d="M14.6267188,67.4892187 L12.5192188,68.9559375 L13.685,71.8267187 C14.6298437,71.8267187 15.441875,71.8267187 16.3867188,71.8267187 L16.3873437,71.8253125 L14.6267188,67.4892187 Z" id="Shape" fill="#ED3E3E"></path>
                        <g id="Group" transform="translate(3.593750, 51.875000)" fill="#EAB883">
                            <path d="M4.06421875,0.29578125 C2.23375,-0.35640625 0.10765625,0.8565625 0.10765625,2.62640625 C0.10765625,4.39578125 2.2334375,5.609375 4.06421875,4.95703125 L4.06421875,0.29578125 Z" id="Shape"></path>
                            <path d="M18.82375,0.29578125 C20.6542188,-0.35640625 22.7803125,0.8565625 22.7803125,2.62640625 C22.7803125,4.39578125 20.6545313,5.609375 18.82375,4.95703125 L18.82375,0.29578125 Z" id="Shape"></path>
                        </g>
                        <g id="Group" transform="translate(3.593750, 53.437500)" fill="#E0A773">
                            <path d="M0.3803125,0.01015625 C-0.74390625,2.06328125 1.71875,4.23046875 4.06421875,3.3946875 L4.06421875,1.2871875 C2.628125,1.79890625 1.01109375,1.1621875 0.3803125,0.01015625 Z" id="Shape"></path>
                            <path d="M18.82375,1.28703125 L18.82375,3.39453125 C21.1690625,4.2303125 23.6317187,2.06328125 22.5076563,0.01 C21.876875,1.1621875 20.2598438,1.79890625 18.82375,1.28703125 Z" id="Shape"></path>
                        </g>
                        <path d="M22.349375,49.4132812 C22.5446875,49.4321875 22.6948438,49.5940625 22.6948438,49.7903125 C22.6948438,56.2373438 22.6990625,55.2948437 22.6840625,55.5945312 C22.2459375,64.23875 9.95890625,65.5829687 7.6565625,57.24125 C7.5296875,56.78 7.446875,56.349375 7.40515625,55.8139062 C7.36234375,55.2725 7.38015625,52.3332812 7.38015625,52.3428125 C7.38015625,50.8414062 8.71265625,49.6959375 10.1985938,49.9104687 C12.5390625,50.2482812 15.9551563,50.1170312 18.9359375,47.5690625 C19.2421875,47.3073437 19.7070312,47.391875 19.9026563,47.7440625 C20.271875,48.4090625 21.0064062,49.2835937 22.349375,49.4132812 Z" id="Shape" fill="#F7CF9C"></path>
                        <path d="M12.075625,55.5945313 C12.0607812,55.29875 12.0646875,56.2115625 12.0648437,50.0451563 C11.3942187,50.0459375 10.7646875,49.9921875 10.1985937,49.9104688 C8.7125,49.6959375 7.38015625,50.8414063 7.38015625,52.3428125 C7.38015625,52.3334375 7.36234375,55.2725 7.40515625,55.8139063 C7.80109375,60.8959375 12.585625,63.9420312 17.38,62.47625 C14.5889062,61.6229688 12.261875,59.2685938 12.075625,55.5945313 Z" id="Shape" fill="#EAB883"></path>
                        <path d="M52.9934375,41.8015625 C52.2351562,26.8384375 30.9665625,24.511875 26.9810937,38.95125 C26.3982812,41.0704687 26.4903125,42.2345312 26.4967187,46.8067188 L53.0128125,46.8067188 C53.0139062,42.13625 53.0132812,42.195625 52.9934375,41.8015625 Z" id="Shape" fill="#93482B"></path>
                        <path d="M35.2971875,38.95125 C36.6465625,34.0623438 39.978125,31.0978125 43.8232812,29.8928125 C37.28625,27.888125 29.27375,30.644375 26.9810937,38.95125 C26.3984375,41.0704687 26.4903125,42.2345312 26.4967187,46.8067188 L34.8128125,46.8067188 C34.805625,41.69125 34.7723437,40.8601562 35.2971875,38.95125 Z" id="Shape" fill="#873921"></path>
                        <path d="M55.2971875,78.6957813 C56.776875,78.6957813 57.9040625,77.3701563 57.6664062,75.9098438 L56.4792187,68.615 C56.2128125,67.2665625 56.060625,65.024375 53.478125,63.9389063 C53.2267187,63.8334375 52.716875,63.6959375 52.693125,63.6875 C46.5728125,61.5254688 46.8101562,61.62125 46.7715625,61.5973438 L44.3579687,60.1028125 C44.3082812,60.0720313 44.278125,60.0178125 44.278125,59.959375 L44.278125,57.3359375 C44.278125,57.2115625 44.1490625,57.131875 44.0364062,57.1846875 C41.4678125,58.3909375 38.386875,58.4842188 35.7673437,57.3609375 C35.6553125,57.3129688 35.5309375,57.3926563 35.5309375,57.5145313 C35.5326562,60.175 35.565,60.0334375 35.451875,60.1026563 C32.7875,61.735 32.9621875,61.630625 32.935,61.64 L31.6229687,62.0910938 L31.62,62.0910938 L31.6204687,62.0920313 C31.6034375,62.0979688 26.1657812,64.0229688 26.5165625,63.865625 C25.0871875,64.399375 23.87875,65.574375 23.7098437,67.2189063 C23.6407812,67.8901563 22.8214062,72.5 22.2517187,75.6692187 C21.968125,77.2467187 23.180625,78.6959375 24.7834375,78.6959375 L55.2971875,78.6959375 L55.2971875,78.6957813 Z" id="Shape" fill="#EFEFEF"></path>
                        <path d="M25.2120312,75.6690625 C25.2120312,75.6690625 26.60125,66.79625 26.6701562,66.125 C26.808125,64.7809375 27.625625,63.7389062 28.783125,63.0929687 C26.465,63.9051562 26.4992187,63.8734375 26.5167187,63.865625 C25.0873437,64.399375 23.8789062,65.574375 23.71,67.2189062 C23.6409375,67.8901562 22.8215625,72.5 22.251875,75.6692187 C21.9682812,77.2467187 23.1807812,78.6959375 24.7835937,78.6959375 L27.7439062,78.6959375 C26.1409375,78.6957812 24.9284375,77.2465625 25.2120312,75.6690625 Z" id="Shape" fill="#DDDDDD"></path>
                        <path d="M39.7546875,64.1660937 L44.8492188,60.4073438 L44.2778125,60.0535937 L44.2778125,57.0675 C41.585625,58.4228125 38.2814063,58.5270313 35.530625,57.2559375 L35.5323438,60.0535938 L34.9548438,60.4073438 L39.7546875,64.1660937 Z" id="Shape" fill="#EAB883"></path>
                        <path d="M39.7546875,64.1660938 L39.7546875,58.1482813 C38.305,58.1595313 36.8539063,57.8671875 35.530625,57.2559375 L35.5323438,60.0535937 L34.9548438,60.4073437 L39.7546875,64.1660938 Z" id="Shape" fill="#E0A773"></path>
                        <g id="Group" transform="translate(32.812500, 60.000000)" fill="#DDDDDD">
                            <path d="M2.71984375,0.05359375 L6.9421875,4.16609375 L3.17328125,6.78890625 C2.62328125,7.1715625 1.85984375,6.9153125 1.65234375,6.278125 L0.13984375,1.6340625 L2.71984375,0.05359375 Z" id="Shape"></path>
                            <path d="M11.4654688,0.05359375 L6.94234375,4.16609375 L10.71125,6.78890625 C11.26125,7.1715625 12.0246875,6.9153125 12.2321875,6.278125 L13.9746875,1.60703125 L11.4654688,0.05359375 Z" id="Shape"></path>
                        </g>
                        <path d="M41.4553125,69.9721875 L38.0507812,69.9642188 L35.7253125,78.7028125 C38.2890625,78.7028125 41.2201563,78.7028125 43.7839063,78.7028125 L41.4553125,69.9721875 Z" id="Shape" fill="#EF3C3C"></path>
                        <polygon id="Shape" fill="#DD2F2F" points="41.4553125 69.9721875 38.0509375 69.9642188 35.7254687 78.7028125 39.2415625 78.7028125 41.4920312 70.1096875"></polygon>
                        <g id="Group" transform="translate(25.468750, 45.000000)" fill="#EAB883">
                            <path d="M5.0096875,0.264375 C2.70828125,-0.55578125 0.0353125,0.969375 0.0353125,3.19453125 C0.0353125,5.4190625 2.70796875,6.94515625 5.0096875,6.1246875 L5.0096875,0.264375 Z" id="Shape"></path>
                            <path d="M23.566875,0.264375 C25.8682812,-0.55578125 28.54125,0.969375 28.54125,3.19453125 C28.54125,5.4190625 25.8685937,6.94515625 23.566875,6.1246875 L23.566875,0.264375 Z" id="Shape"></path>
                        </g>
                        <g id="Group" transform="translate(25.468750, 46.718750)" fill="#E0A773">
                            <path d="M0.41890625,0.08046875 C-1.09125,2.665625 2.02171875,5.47109375 5.0096875,4.40625 L5.0096875,1.6153125 C3.23390625,2.248125 1.23875,1.48375 0.41890625,0.08046875 Z" id="Shape"></path>
                            <path d="M23.566875,1.61515625 L23.566875,4.40625 C26.5546875,5.47109375 29.6678125,2.66578125 28.1576562,0.08046875 C27.3376563,1.48375 25.3426563,2.248125 23.566875,1.61515625 Z" id="Shape"></path>
                        </g>
                        <path d="M48.9498437,41.7971875 C49.1953125,41.8209375 49.3842187,42.0245313 49.3842187,42.27125 C49.3842187,50.3770313 49.3895312,49.191875 49.370625,49.56875 C48.8198437,60.4370313 33.3715625,62.1270313 30.4767187,51.6390625 C30.3171875,51.0590625 30.213125,50.5175 30.160625,49.8445313 C30.1067187,49.1639063 30.1292187,45.4685938 30.1292187,45.4803125 C30.1292187,43.5926563 31.8045312,42.1523438 33.6728125,42.4221875 C36.6153125,42.846875 40.9103125,42.681875 44.658125,39.4784375 C45.0432812,39.1492188 45.6276562,39.255625 45.8735937,39.6984375 C46.3378125,40.535 47.26125,41.634375 48.9498437,41.7971875 Z" id="SVGCleanerId_0" fill="#F7CF9C"></path>
                        <path d="M48.9498437,41.7971875 C49.1953125,41.8209375 49.3842187,42.0245313 49.3842187,42.27125 C49.3842187,50.3770313 49.3895312,49.191875 49.370625,49.56875 C48.8198437,60.4370313 33.3715625,62.1270313 30.4767187,51.6390625 C30.3171875,51.0590625 30.213125,50.5175 30.160625,49.8445313 C30.1067187,49.1639063 30.1292187,45.4685938 30.1292187,45.4803125 C30.1292187,43.5926563 31.8045312,42.1523438 33.6728125,42.4221875 C36.6153125,42.846875 40.9103125,42.681875 44.658125,39.4784375 C45.0432812,39.1492188 45.6276562,39.255625 45.8735937,39.6984375 C46.3378125,40.535 47.26125,41.634375 48.9498437,41.7971875 Z" id="SVGCleanerId_0_1_" fill="#F7CF9C"></path>
                        <path d="M34.8267188,49.5689062 C34.8079688,49.1964062 34.8129688,50.3485937 34.813125,42.5473437 C34.4151563,42.5175 34.03375,42.4745312 33.6728125,42.4223437 C31.8045313,42.1526562 30.1292188,43.5929687 30.1292188,45.4804687 C30.1292188,45.4685937 30.106875,49.1639062 30.160625,49.8446875 C30.62625,55.8201562 36.0601563,59.8367187 42.09875,58.3854687 C38.3276563,57.4792187 35.0740625,54.450625 34.8267188,49.5689062 Z" id="Shape" fill="#EAB883"></path>
                        <path d="M39.7546875,64.1660938 L36.590625,66.368125 L38.05625,69.9776563 C39.244375,69.9776563 40.2651563,69.9776563 41.4532812,69.9776563 L42.9190625,66.368125 L39.7546875,64.1660938 Z" id="Shape" fill="#F94A46"></path>
                        <path d="M39.2425,64.5225 L36.590625,66.368125 L38.05625,69.9776563 C39.244375,69.9776563 40.2651563,69.9776563 41.4532813,69.9776563 L41.4554688,69.9723438 L39.2425,64.5225 Z" id="Shape" fill="#ED3E3E"></path>
                        <path d="M79.9146875,75.1145313 L79.8398438,74.6545313 C79.7357812,74.0157813 79.1328125,73.5821875 78.4946875,73.68625 C77.8557813,73.7903125 77.4223437,74.3923438 77.5264062,75.03125 L77.60125,75.49125 C77.7854687,76.6242188 76.9101562,77.6515625 75.76375,77.6515625 L74.1526562,77.6515625 L74.1526562,74.9296875 C74.1526562,74.2823438 73.628125,73.7576563 72.980625,73.7576563 C72.3332813,73.7576563 71.8085938,74.2821875 71.8085938,74.9296875 L71.8085938,77.6515625 L68.9035938,77.6515625 L67.3973438,72.0129688 L67.9284375,70.705 C68.8315625,70.8554688 69.7815625,70.3526563 70.105625,69.4045313 L71.0735938,66.8098438 C74.2996875,67.9471875 75.0554688,68.1984375 75.1896875,68.2373438 C75.1954688,68.2398438 75.2017188,68.2425 75.2092188,68.245625 C75.9514063,68.5575 76.3710938,69.0232813 76.6123438,69.8029688 C76.80375,70.4210938 77.4595313,70.768125 78.0784375,70.5760938 C78.6967188,70.3846875 79.0428125,69.7284375 78.8515625,69.11 C78.4089063,67.6790625 77.4889063,66.6610938 76.1171875,66.0846875 C76.07,66.0648438 76.0485938,66.055 76.0407813,66.050625 C75.8960938,66.006875 75.056875,65.7285938 71.075,64.3221875 L71.0735938,64.325625 C70.6815625,64.1867188 71.139375,64.3789063 69.5671875,63.4429688 L69.5671875,62.8379688 C71.1440625,61.8775 72.46125,60.3951563 73.1296875,58.3782813 C76.6628125,58.6534375 78.6884375,54.8 76.468125,52.3667188 C76.4684375,49.5917188 76.475,49.7014063 76.4460938,49.5248438 C75.7471875,37.30625 59.4225,34.7773438 54.4664063,44.8240625 C54.4670313,41.72375 54.473125,41.8384375 54.44,41.646875 C53.5228125,25.3946875 30.3873438,22.9101563 26.0470313,38.6357813 C25.4440625,40.8285938 25.5179688,42.26625 25.51875,44.6865625 C21.1246875,36.196875 6.95703125,36.2285938 3.9528125,47.1140625 C3.444375,48.9623438 3.5253125,50.2057813 3.528125,52.3701563 C1.2221875,54.904375 3.47390625,58.6742188 6.90765625,58.3757813 C7.6284375,60.4682813 8.9096875,61.943125 10.4323437,62.8814063 L10.4323437,63.4428125 C9.1415625,64.2115625 9.306875,64.191875 8.9259375,64.3254688 L8.9246875,64.3220313 C3.27890625,66.3115625 4.18140625,65.9592188 3.8821875,66.0846875 C1.4459375,67.1090625 1.07140625,69.208125 0.87015625,70.3359375 C0.8515625,70.4396875 0.8340625,70.5390625 0.81546875,70.6325 C0.74359375,70.9982813 1.02359375,69.3517188 0.0853125,75.1148438 C-0.33109375,77.6745313 1.64671875,79.9954688 4.23625,79.9954688 C4.255625,79.9954688 61.169375,80.0057813 75.7639062,79.9954688 C78.356875,79.9954688 80.3309375,77.670625 79.9146875,75.1145313 Z M71.2484375,55.7535937 C70.8810937,63.00375 60.5559375,64.1429687 58.6226563,57.1376562 C58.3234375,56.0503125 58.3995313,55.62125 58.39,52.5920312 C58.3935938,52.5751562 58.3614063,52.0290625 58.8270313,51.6257812 C59.111875,51.3789062 59.4754688,51.2732812 59.85,51.3271875 C62.2910938,51.6795312 65.8039063,51.5607812 68.9764062,49.1226562 C69.5625,49.9178125 70.3460938,50.4626562 71.2576563,50.71 C71.2585937,56.2804687 71.2609375,55.5071875 71.2484375,55.7535937 Z M71.973125,50.8398438 C71.9734375,50.8398438 71.9735937,50.8398438 71.9739062,50.8398438 C71.9739062,50.8398438 71.9739062,50.84 71.9740625,50.84 C71.97375,50.8398438 71.9734375,50.8398438 71.973125,50.8398438 Z M74.4884375,55.7267188 C74.2265625,55.9114062 73.9198437,56.0182813 73.6021875,56.0429688 L73.6021875,53.4115625 C74.960625,53.5173438 75.58625,54.9529687 74.4884375,55.7267188 Z M55.8609375,47.7367187 C58.6554688,37.6115625 73.5792187,39.2529687 74.110625,49.7353125 C74.1254687,50.0384375 74.1246875,49.3942187 74.1246875,51.1176562 C73.951875,51.0898437 73.7773437,51.0726562 73.601875,51.0665625 L73.6017187,50.0478125 C73.6017187,49.2460937 72.9985937,48.5834375 72.1984375,48.5067187 C71.5470313,48.44375 71.03625,48.086875 70.6807812,47.4465625 C70.1276562,46.4507812 68.803125,46.2078125 67.9345312,46.9507812 C65.308125,49.1954687 62.2710937,49.3079687 60.1846875,49.0073437 C58.5985937,48.7784375 57.0515625,49.6151562 56.3798437,51.066875 C56.0915625,51.0539062 55.8040625,51.0723437 55.52125,51.118125 C55.526875,49.7975 55.5109375,49.0090625 55.8609375,47.7367187 Z M56.0429688,53.4120312 C56.0425,53.6525 56.04125,53.5410937 56.0460937,56.0429687 C55.7284375,56.0182812 55.4217187,55.91125 55.16,55.7267187 C54.0575,54.9496875 54.6954687,53.5192187 56.0429688,53.4120312 Z M52.4507813,49.748125 C51.9776563,50.0817187 51.403125,50.2392187 50.8265625,50.2114062 C50.8265625,49.7098437 50.8265625,46.678125 50.8265625,46.2292187 C53.034375,46.1153125 54.2014063,48.5132812 52.4507813,49.748125 Z M28.306875,39.258125 C31.9520312,26.0515625 51.4117187,28.1960937 52.1045313,41.865 C52.1253125,42.274375 52.123125,41.3 52.1226562,44.0209375 C51.6996875,43.9195312 51.2639062,43.8742187 50.8259375,43.8857813 L50.8257813,42.2775 C50.8257813,41.42375 50.183125,40.7176562 49.3304688,40.6353125 C49.3304688,40.6353125 49.3304688,40.6353125 49.3304688,40.6351563 C48.393125,40.5448438 47.6614063,40.0375 47.1560938,39.1275 C46.5485938,38.033125 45.0989063,37.774375 44.1507813,38.5846875 C40.7248438,41.5128125 36.7715625,41.6604688 34.058125,41.2690625 C32.10625,40.9879688 30.2104688,42.0695313 29.4726563,43.9032813 C28.9304688,43.8554688 28.3867188,43.8957812 27.8629688,44.021875 C27.8667188,42.1551562 27.8196875,41.0298437 28.306875,39.258125 Z M40.020625,62.6351562 L36.9282813,59.6232813 L36.928125,59.509375 C39.0167188,60.0845312 41.2670313,60.0403125 43.3589063,59.3832812 L43.3589063,59.5998438 L40.020625,62.6351562 Z M41.7290625,66.8804688 L40.9078125,68.9029688 L39.0776562,68.9029688 L38.2565625,66.8804688 L39.9929687,65.6720313 L41.7290625,66.8804688 Z M38.158125,64.0932812 C38.075,64.1510937 36.27,65.4073437 35.729375,65.7835937 L34.56875,62.2203125 C34.584375,62.2107812 35.65875,61.5526562 35.5915625,61.59375 L38.158125,64.0932812 Z M44.6653125,61.5798437 C44.6810938,61.5895312 45.6765625,62.2059375 45.614375,62.1673438 L44.2634375,65.7884375 C43.640625,65.355 42.1929688,64.3473437 41.8692188,64.1220312 L44.6653125,61.5798437 Z M38.3982812,57.4273438 C34.4139062,56.7384375 31.8284375,53.5478125 31.5354687,49.7834375 C31.4932812,49.250625 31.5120312,46.894375 31.5075,45.4973437 C31.5075,44.2935937 32.5770312,43.4240625 33.7232812,43.5889063 C36.82875,44.0375 41.3265625,43.8746875 45.3367187,40.6460937 C46.10125,41.8145313 47.193125,42.5848438 48.481875,42.87 C48.4828125,50.0896875 48.484375,49.2478125 48.4696875,49.5396875 C48.1929687,55.0034375 43.426875,58.2695312 38.3982812,57.4273438 Z M29.1604688,46.2290625 C29.1589063,46.733125 29.1635938,50.1948437 29.1635938,50.2114062 C27.92625,50.2695312 26.6920313,49.4342187 26.6920313,48.2203125 C26.691875,46.9984375 27.9396875,46.168125 29.1604688,46.2290625 Z M24.8401563,55.7267188 C24.5784375,55.9114062 24.2717188,56.0182813 23.9540625,56.0429688 L23.9540625,53.4115625 C25.3170312,53.5176563 25.9351563,54.955 24.8401563,55.7267188 Z M4.94984375,54.7273437 C4.94984375,53.9939062 5.6603125,53.4704687 6.3946875,53.4120312 C6.39328125,54.0984375 6.39421875,53.578125 6.3978125,56.0429687 C5.65859375,55.9854687 4.94984375,55.4582812 4.94984375,54.7273437 Z M6.731875,51.0667187 C6.44359375,51.05375 6.1559375,51.0723437 5.87296875,51.118125 C5.87828125,49.7915625 5.86359375,49.0059375 6.2125,47.736875 C9.0075,37.6104688 23.9309375,39.2546875 24.4620312,49.7357812 C24.4767187,50.0253125 24.47625,49.4307812 24.47625,51.1178125 C24.3034375,51.09 24.1289062,51.0728125 23.9534375,51.0667187 L23.9532812,50.0479688 C23.9532812,49.2464063 23.3504688,48.5840625 22.550625,48.5070312 C21.8990625,48.4440625 21.388125,48.0873438 21.0323437,47.4465625 C20.479375,46.4507813 19.1548437,46.2082812 18.2860937,46.9509375 C15.6595312,49.1959375 12.621875,49.3082812 10.5364062,49.0075 C8.9534375,48.7790625 7.405,49.611875 6.731875,51.0667187 Z M8.76296875,55.9384375 C8.730625,55.5292187 8.74515625,53.6685937 8.74171875,52.583125 C8.74171875,51.8114062 9.42328125,51.2154687 10.201875,51.3270312 C12.6428125,51.6795312 16.1559375,51.5604687 19.3282812,49.1225 C19.9142187,49.9176563 20.6979687,50.4625 21.6095312,50.7098438 C21.609375,56.2639062 21.61375,55.4785938 21.6001563,55.7534375 C21.1990625,63.6664062 9.38625,63.9325 8.76296875,55.9384375 Z M11.0959375,77.6515625 L8.19109375,77.6515625 L8.19109375,74.9296875 C8.19109375,74.2823437 7.66640625,73.7576562 7.0190625,73.7576562 C6.37171875,73.7576562 5.84703125,74.2821875 5.84703125,74.9296875 L5.84703125,77.6515625 C4.7515625,77.55375 3.64453125,77.9678125 2.818125,76.9960938 C2.46375,76.5795312 2.3109375,76.0309375 2.39875,75.49125 C3.59234375,68.2407812 3.09828125,68.8621875 6.2925,67.7378125 C8.4909375,66.96125 8.799375,66.85125 8.876875,66.8267187 C8.87703125,66.8267187 8.87734375,66.8265625 8.8775,66.8265625 C8.8953125,66.8210937 8.9103125,66.815625 8.9259375,66.8101562 L9.89375,69.4046875 C10.213125,70.33875 11.1528125,70.8582812 12.0710938,70.7051562 L12.6021875,72.013125 L11.0959375,77.6515625 Z M11.9360938,68.1728125 L11.0560938,65.8139063 C11.0725,65.80375 11.4967188,65.5410938 11.47,65.5576562 L13.3014063,67.2228125 L11.9360938,68.1728125 Z M13.5221875,77.6515625 L14.7359375,73.1079687 L15.6195313,73.1079687 L16.8332813,77.6515625 L13.5221875,77.6515625 Z M14.11625,69.5114062 L15.1776563,68.7726562 L16.2390625,69.5114062 L15.7304688,70.7640625 L14.625,70.7640625 L14.11625,69.5114062 Z M15.15,65.735625 L13.2209375,63.9815625 C14.3720313,64.22125 15.6864063,64.2525 16.903125,64.0279687 L15.15,65.735625 Z M18.6782813,65.57125 C18.7126563,65.5923437 19.1673438,65.8707812 19.1507813,65.8607812 L18.401875,68.1604687 L17.0123438,67.1935937 L18.6782813,65.57125 Z M22.1448438,77.6515625 L19.259375,77.6515625 L17.7529688,72.0128125 L18.2839063,70.705 C19.195625,70.8570312 20.1559375,70.3429687 20.4707813,69.3760937 L21.2964063,66.8409375 C21.8371875,67.0325 22.3060938,67.198125 22.7092188,67.3401562 C21.7939063,73.8184375 20.7207813,75.3101562 22.1448438,77.6515625 Z M21.0542188,64.278125 L19.6857813,63.4398437 L19.6860938,62.9746875 C21.3654688,62.0207812 22.780625,60.49375 23.4817188,58.3784375 C26.9584375,58.6492188 29.0789063,54.8425 26.8201563,52.366875 C26.8201563,52.2528125 26.8201563,52.1445312 26.8201563,52.0398438 C27.6960937,52.4765625 28.6985938,52.6495312 29.7110938,52.5115625 C30.6490625,55.4234375 32.4534375,57.393125 34.5832813,58.563125 L34.5839063,59.4621875 L32.6653125,60.6376563 C32.6492188,60.6432813 26.4942187,62.7729688 26.3010937,62.8451563 C25.1245313,63.284375 24.1184375,64.0507812 23.4375,65.1117187 C21.5134375,64.4335938 22.5035938,64.7764062 21.0542188,64.278125 Z M35.0520313,77.65 L30.8075,77.65 L30.8075,73.876875 C30.8075,73.2295313 30.2828125,72.7048438 29.6354687,72.7048438 C28.988125,72.7048438 28.4634375,73.229375 28.4634375,73.876875 L28.4634375,77.65 C28.0617187,77.65 26.9323437,77.65 26.3089062,77.65 C24.734375,77.65 23.5442188,76.2260938 23.8210937,74.67875 C25.175625,67.1075 25.03,67.4192187 25.1420313,67.0053125 C25.39,66.0829687 26.1959375,65.3979688 27.0778125,65.0573438 C27.4478125,64.9614063 31.9792188,63.3564062 32.4226563,63.1995313 L33.57125,66.72625 C33.9457813,67.8760938 35.1521875,68.4589063 36.2395313,68.1435938 L37.055,70.1520313 L35.0520313,77.65 Z M37.478125,77.65 L39.1885938,71.246875 L40.796875,71.246875 L42.5073438,77.65 L37.478125,77.65 Z M53.8884375,77.65 C53.5209375,77.65 52.066875,77.65 51.5260938,77.65 L51.5260938,73.876875 C51.5260938,73.2295313 51.0015625,72.7048438 50.3540625,72.7048438 C49.7065625,72.7048438 49.1820313,73.229375 49.1820313,73.876875 L49.1820313,77.65 L44.9334375,77.65 L42.9304688,70.1520312 L43.7459375,68.1435938 C44.8373438,68.4601562 46.02375,67.8754687 46.405,66.7540625 L47.744375,63.16375 C52.9148438,64.9817187 52.5829688,64.8739063 52.6790625,64.8990625 C55.711875,65.730625 55.2678125,67.4376563 56.5339063,74.5389062 C56.7995313,76.1703125 55.5390625,77.65 53.8884375,77.65 Z M53.3559375,62.6564062 C53.3546875,62.6559375 53.3535938,62.655625 53.3523437,62.6551562 C53.3470313,62.6532812 53.3348437,62.6490625 53.315,62.6420312 C53.3125,62.6410937 53.31,62.6403125 53.3076563,62.6395312 C53.309375,62.6401562 53.3110937,62.6407812 53.3128125,62.6414062 C53.3026562,62.6378125 53.2907812,62.6335937 53.27625,62.6284375 C53.2771875,62.62875 53.278125,62.6290625 53.2790625,62.629375 C53.2695313,62.6259375 53.2620312,62.6232812 53.2560937,62.62125 C53.25875,62.6221875 53.2617188,62.6232812 53.2648437,62.624375 C53.2596875,62.6226562 53.2546875,62.6207812 53.2492187,62.6189062 C53.25,62.6192187 53.2509375,62.6195312 53.251875,62.6198437 C53.240625,62.6159375 53.2371875,62.6146875 53.2390625,62.6153125 C52.898125,62.4948437 51.670625,62.0614062 47.8270312,60.7039062 L47.826875,60.704375 C47.2295313,60.5101562 47.8870312,60.7460937 45.7026562,59.4654687 L45.7026562,58.3401562 C47.7734375,57.1226562 49.5009375,55.1879687 50.3185937,52.5173437 C51.3117187,52.6445312 52.3048437,52.4721875 53.1759375,52.0364062 C53.1759375,52.145 53.1760937,52.2557812 53.17625,52.3703125 C50.9160938,54.8545312 53.0603125,58.6795312 56.5557813,58.3759375 C57.313125,60.5745312 58.6890625,62.0921875 60.31375,63.0210937 L60.3140625,63.4395312 C58.5503125,64.5198437 59.409375,64.1070312 56.798125,65.028125 C56.0048437,63.8057812 54.74875,63.00875 53.3559375,62.6564062 Z M53.3534375,62.6554687 C53.3567188,62.6565625 53.356875,62.6565625 53.3534375,62.6554687 Z M53.3501562,62.6542188 C53.3496875,62.6540625 53.3492187,62.6539063 53.34875,62.65375 C53.3492187,62.6539063 53.3496875,62.6540625 53.3501562,62.6542188 Z M53.3395313,62.650625 C53.333125,62.6482812 53.326875,62.6460937 53.3210938,62.6440625 C53.3279688,62.6464062 53.3342188,62.6485938 53.3395313,62.650625 Z M60.740625,77.6515625 L58.1373438,77.6515625 C58.590625,76.934375 58.8671875,76.0870312 58.9067188,75.1959375 C58.9525,74.164375 57.73,67.443125 57.675,67.2045313 C57.9834375,67.095625 58.3257813,66.9746875 58.703125,66.8409375 L59.52875,69.3764063 C59.8429688,70.340625 60.801875,70.8575 61.7154688,70.7051563 L62.2465625,72.013125 L60.740625,77.6515625 Z M61.5982812,68.160625 L60.849375,65.8609375 C60.8657813,65.8507812 61.3521875,65.5529687 61.3220312,65.5714062 L62.9878125,67.1939062 L61.5982812,68.160625 Z M66.8120312,63.9517187 L64.85,65.735625 L63.0971875,64.0284375 C64.3201562,64.2540625 65.58875,64.2279687 66.8120312,63.9517187 Z M65.88375,69.5114062 L65.3751562,70.7640625 L64.2695312,70.7640625 L63.7609375,69.5114062 L64.8223437,68.7726562 L65.88375,69.5114062 Z M63.1667188,77.6515625 L64.380625,73.1079687 L65.2640625,73.1079687 L66.4778125,77.6515625 L63.1667188,77.6515625 Z M68.5301563,65.5575 C68.5457813,65.5671875 68.9709375,65.8303125 68.9440625,65.81375 L68.0640625,68.1726562 L66.69875,67.2226562 L68.5301563,65.5575 Z" id="Shape" fill="#000000"></path>
                        <path d="M76.0490518,66.0572028 C76.2735518,66.1252028 75.9770518,66.0167028 76.0490518,66.0572028 Z" id="Shape" fill="#000000"></path>
                        <path d="M53.2792188,62.6292187 C53.2987188,62.6362188 53.3207188,62.6437187 53.3457188,62.6527188 C53.3232187,62.6447188 53.3007187,62.6367187 53.2792188,62.6292187 Z" id="Shape" fill="#000000"></path>
                        <path d="M53.2655312,62.6245312 C53.2605312,62.6230312 53.2565313,62.6215312 53.2520313,62.6195312 C53.2560313,62.6210312 53.2610313,62.6230312 53.2655312,62.6245312 Z" id="Shape" fill="#000000"></path>
                        <path d="M53.3191563,62.6435 C53.3136562,62.6415 53.3081563,62.6395 53.3026562,62.6375 C53.3071563,62.639 53.3136562,62.6415 53.3191563,62.6435 Z" id="Shape" fill="#000000"></path>
                        <path d="M53.3001563,62.6365625 C53.3026562,62.6375625 53.3051562,62.6385625 53.3081563,62.6390625 C53.3051562,62.6385625 53.3026562,62.6375625 53.3001563,62.6365625 Z" id="Shape" fill="#000000"></path>
                        <path d="M58.2882812,33.2490625 L70.86125,33.2490625 C72.8328125,34.9545313 73.0882812,35.7390625 74.1492188,35.7390625 C75.0451562,35.7390625 75.7860937,35.0134375 75.7860937,34.1021875 L75.7860937,20.3979688 C75.7860937,18.90375 74.570625,17.6882813 73.0765625,17.6882813 L58.0832812,17.6882813 C56.5892187,17.6882813 55.3735937,18.9039063 55.3735937,20.3979688 L55.3735937,30.334375 C55.3735937,31.9415625 56.6810937,33.2490625 58.2882812,33.2490625 Z M57.7175,20.3979688 C57.7175,20.1998438 57.885,20.0321875 58.0832812,20.0321875 L73.0765625,20.0321875 C73.2748438,20.0321875 73.4421875,20.1996875 73.4421875,20.3979688 L73.4421875,32.4620313 C72.695,31.8689063 72.1890625,30.9051563 70.914375,30.9051563 L58.2882812,30.9051563 C57.9734375,30.9051563 57.7175,30.6490625 57.7175,30.334375 L57.7175,20.3979688 Z" id="Shape" fill="#000000"></path>
                        <path d="M59.8154687,26.1723438 C59.8898437,26.2876563 59.9990625,26.4017188 60.1389062,26.4973438 C60.2654687,26.5807813 60.410625,26.64125 60.5607812,26.6723438 C61.513125,26.8471875 62.2242187,25.9053125 61.871875,25.0739063 C61.7651562,24.8064063 61.5353125,24.5598438 61.2390625,24.4409375 C61.0310937,24.3534375 60.7929687,24.3259375 60.5609375,24.37375 C60.4332812,24.3976563 60.2729687,24.4589063 60.1390625,24.5471875 C60.0128125,24.633125 59.903125,24.7395313 59.815625,24.8721875 C59.7354687,24.9910938 59.67375,25.1360938 59.640625,25.2939063 C59.610625,25.4545313 59.6125,25.5985938 59.640625,25.751875 C59.65625,25.8270313 59.7354687,26.05375 59.8154687,26.1723438 Z" id="Shape" fill="#000000"></path>
                        <path d="M65.2698437,26.6945313 L70.2964063,26.6945313 C70.94375,26.6945313 71.4684375,26.17 71.4684375,25.5225 C71.4684375,24.8751563 70.9439062,24.3504688 70.2964063,24.3504688 L65.2698437,24.3504688 C64.6225,24.3504688 64.0978125,24.875 64.0978125,25.5225 C64.0979687,26.17 64.6225,26.6945313 65.2698437,26.6945313 Z" id="Shape" fill="#000000"></path>
                        <path d="M10.5167188,24.8725 C10.4745313,24.8084375 10.4260938,24.7473437 10.3714063,24.6942187 C10.3167188,24.6395312 10.2573438,24.5910937 10.1932813,24.5475 C10.1292188,24.5051562 10.0620313,24.469375 9.99171875,24.4410937 C9.91984375,24.4114062 9.84640625,24.3879687 9.77140625,24.3739062 C9.61984375,24.3426562 9.46515625,24.3426562 9.31359375,24.3739062 C9.23859375,24.3879687 9.16515625,24.4114062 9.09484375,24.4410937 C9.02453125,24.469375 8.95578125,24.5051562 8.89171875,24.5475 C8.82765625,24.5910937 8.76828125,24.6396875 8.71359375,24.6942187 C8.66046875,24.7473437 8.61046875,24.8082812 8.56828125,24.8725 C8.52609375,24.9348437 8.49015625,25.00375 8.46046875,25.0740625 C8.43078125,25.1442187 8.40890625,25.219375 8.39328125,25.2942187 C8.37921875,25.3692187 8.37140625,25.4459375 8.37140625,25.5223437 C8.37140625,25.5989062 8.37921875,25.6754687 8.39328125,25.7521875 C8.40890625,25.8271875 8.43078125,25.9004687 8.46046875,25.9707812 C8.49015625,26.0410937 8.52609375,26.11 8.56828125,26.1723437 C8.61046875,26.2379687 8.66046875,26.2973437 8.71359375,26.350625 C8.76828125,26.4053125 8.82765625,26.4535937 8.89171875,26.4973437 C8.95578125,26.5396875 9.02453125,26.5754687 9.09484375,26.6051562 C9.16515625,26.6332812 9.23859375,26.6567187 9.31359375,26.6723437 C9.39015625,26.6864062 9.46671875,26.6942187 9.54328125,26.6942187 C9.85109375,26.6942187 10.1526563,26.5692187 10.3714063,26.350625 C10.4260937,26.2973437 10.4745313,26.2379687 10.5167188,26.1723437 C10.5589063,26.11 10.5964063,26.0410937 10.6245313,25.9707812 C10.6542188,25.9004687 10.6760938,25.8270312 10.6917188,25.7521875 C10.7073438,25.675625 10.7151563,25.5990625 10.7151563,25.5223437 C10.7151563,25.4459375 10.7073438,25.3692187 10.6917188,25.2942187 C10.6760938,25.2192187 10.6542188,25.1442187 10.6245313,25.0740625 C10.59625,25.00375 10.5589063,24.9348437 10.5167188,24.8725 Z" id="Shape" fill="#000000"></path>
                        <path d="M12.8501562,25.5226563 C12.8501562,26.17 13.3748438,26.6946875 14.0221875,26.6946875 L19.04875,26.6946875 C19.6959375,26.6946875 20.2207813,26.1701563 20.2207813,25.5226563 C20.2207813,24.8753125 19.6960938,24.350625 19.04875,24.350625 L14.0221875,24.350625 C13.3748438,24.350625 12.8501562,24.8753125 12.8501562,25.5226563 Z" id="Shape" fill="#000000"></path>
                        <path d="M33.2215625,14.3535938 L42.415,14.3535938 C43.0623437,14.3535938 43.5870312,13.8290625 43.5870312,13.1815625 C43.5870312,12.5340625 43.0625,12.0095313 42.415,12.0095313 L33.2215625,12.0095313 C32.574375,12.0095313 32.0495313,12.5340625 32.0495313,13.1815625 C32.0496875,13.8289063 32.574375,14.3535938 33.2215625,14.3535938 Z" id="Shape" fill="#000000"></path>
                        <path d="M47.1289063,12.0096875 L47.1029688,12.0096875 C46.455625,12.0096875 45.9309375,12.5342188 45.9309375,13.1817188 C45.9309375,13.8292188 46.4554688,14.35375 47.1029688,14.35375 L47.1289063,14.35375 C47.77625,14.35375 48.3009375,13.8292188 48.3009375,13.1817188 C48.3007813,12.534375 47.7760938,12.0096875 47.1289063,12.0096875 Z" id="Shape" fill="#000000"></path>
                        <path d="M47.1289062,6.384375 L37.9354688,6.384375 C37.2882813,6.384375 36.7634375,6.90890625 36.7634375,7.55640625 C36.7634375,8.20390625 37.288125,8.7284375 37.9354688,8.7284375 L47.1289062,8.7284375 C47.77625,8.7284375 48.3009375,8.20390625 48.3009375,7.55640625 C48.3009375,6.90890625 47.7760937,6.384375 47.1289062,6.384375 Z" id="Shape" fill="#000000"></path>
                        <path d="M33.2215625,8.72828125 L33.2475,8.72828125 C33.8946875,8.72828125 34.4195312,8.20375 34.4195312,7.55625 C34.4195312,6.90875 33.8948437,6.38421875 33.2475,6.38421875 L33.2215625,6.38421875 C32.574375,6.38421875 32.0495313,6.90875 32.0495313,7.55625 C32.0495313,8.20375 32.574375,8.72828125 33.2215625,8.72828125 Z" id="Shape" fill="#000000"></path>
                        <path d="M6.97390625,35.2923438 L9.13875,33.2490625 L21.7117187,33.2490625 C23.3189062,33.2490625 24.6264062,31.9414063 24.6264062,30.334375 L24.6264062,20.3979688 C24.6264062,18.90375 23.4107812,17.6882813 21.916875,17.6882813 L19.2698437,17.6882813 C18.6226562,17.6882813 18.0978125,18.2128125 18.0978125,18.8603125 C18.0978125,19.5078125 18.6225,20.0323438 19.2698437,20.0323438 L21.916875,20.0323438 C22.115,20.0323438 22.2825,20.1998438 22.2825,20.398125 L22.2825,30.3345313 C22.2825,30.649375 22.0264062,30.9053125 21.7117187,30.9053125 L9.08578125,30.9053125 C7.8053125,30.9053125 7.329375,31.8496875 6.55796875,32.4621875 L6.55796875,20.398125 C6.55796875,20.2 6.7253125,20.0323438 6.92359375,20.0323438 L13.8007812,20.0323438 C14.4479688,20.0323438 14.9728125,19.5078125 14.9728125,18.8603125 C14.9728125,18.2128125 14.448125,17.6882812 13.8007812,17.6882812 L6.92359375,17.6882812 C5.42953125,17.6882812 4.2140625,18.9039062 4.2140625,20.3979687 L4.2140625,34.1021875 C4.2140625,35.5448438 5.94109375,36.2676563 6.97390625,35.2923438 Z" id="Shape" fill="#000000"></path>
                        <path d="M30.6096875,20.0321875 L36.7607813,20.0321875 L38.321875,22.2903125 C39.1875,23.5428125 40.82125,23.5089063 41.66375,22.2903125 L43.2248437,20.0321875 L49.3904687,20.0321875 C51.3928125,20.0321875 53.021875,18.403125 53.021875,16.4007813 L53.021875,10.2909375 C53.021875,9.64359375 52.4973437,9.11890625 51.8498437,9.11890625 C51.2025,9.11890625 50.6778125,9.6434375 50.6778125,10.2909375 L50.6778125,16.4009375 C50.6778125,17.1107813 50.1003125,17.6884375 49.3903125,17.6884375 L42.6101562,17.6884375 C42.2253125,17.6884375 41.865,17.8773438 41.64625,18.1939063 L39.9926562,20.5854688 L38.339375,18.1939063 C38.1204688,17.8773438 37.7601563,17.6884375 37.3753125,17.6884375 L30.6096875,17.6884375 C29.8996875,17.6884375 29.3220313,17.1109375 29.3220313,16.4009375 L29.3220313,3.63140625 C29.3220313,2.9215625 29.8995313,2.34390625 30.6096875,2.34390625 L49.3904688,2.34390625 C50.1003125,2.34390625 50.6779688,2.92140625 50.6779688,3.63140625 L50.6779688,4.821875 C50.6779688,5.46921875 51.2025,5.99390625 51.85,5.99390625 C52.4973437,5.99390625 53.0220312,5.469375 53.0220312,4.821875 L53.0220312,3.63140625 C53.021875,1.6290625 51.3928125,0 49.3904688,0 L30.6096875,0 C28.6071875,0 26.978125,1.6290625 26.978125,3.63140625 L26.978125,16.4009375 C26.9782813,18.4032813 28.6073438,20.0321875 30.6096875,20.0321875 Z" id="Shape" fill="#000000"></path>
                    </g>
                </g>
            </g>
        </g>
    </g>
</svg>