<?xml version="1.0" encoding="UTF-8"?>
<svg width="18px" height="20px" viewBox="0 0 18 20" version="1.1" xmlns="http://www.w3.org/2000/svg" xmlns:xlink="http://www.w3.org/1999/xlink">
    <!-- Generator: Sketch 50.2 (55047) - http://www.bohemiancoding.com/sketch -->
    <title>database</title>
    <desc>Created with Sketch.</desc>
    <defs></defs>
    <g id="team" stroke="none" stroke-width="1" fill="none" fill-rule="evenodd">
        <g id="create-team" transform="translate(-883.000000, -888.000000)" fill-rule="nonzero">
            <g id="Group-5" transform="translate(852.000000, 201.000000)">
                <g id="database" transform="translate(31.000000, 687.000000)">
                    <path d="M0.0357295374,3.73701068 L0.0357295374,16.1937367 C0.0357295374,18.2565836 3.93964413,19.9307473 8.75544484,19.9307473 C13.5712456,19.9307473 17.4751601,18.2565836 17.4751601,16.1937367 L17.4751601,3.73701068 L0.0357295374,3.73701068 Z" id="Shape" fill="#CCD0D2"></path>
                    <path d="M14.9837722,8.7197153 C15.3281851,8.7197153 15.6066192,8.44128114 15.6066192,8.09686833 C15.6066192,7.75309609 15.3281851,7.47402135 14.9837722,7.47402135 C14.6393594,7.47402135 14.3609253,7.75302491 14.3609253,8.09686833 C14.3609253,8.44128114 14.6392883,8.7197153 14.9837722,8.7197153 Z M14.9837722,11.833879 C14.6393594,11.833879 14.3609253,12.1128826 14.3609253,12.456726 C14.3609253,12.8011388 14.6393594,13.079573 14.9837722,13.079573 C15.3281851,13.079573 15.6066192,12.8011388 15.6066192,12.456726 C15.606548,12.1129537 15.3276157,11.833879 14.9837722,11.833879 Z M14.9837722,16.1937367 C14.6393594,16.1937367 14.3609253,16.4721708 14.3609253,16.8165836 C14.3609253,17.1609964 14.6393594,17.4394306 14.9837722,17.4394306 C15.3281851,17.4394306 15.6066192,17.1609964 15.6066192,16.8165836 C15.6066192,16.4721708 15.3276157,16.1937367 14.9837722,16.1937367 Z" id="Shape" fill="#ADB0B2"></path>
                    <path d="M8.75544484,11.8345196 C13.5712456,11.8345196 17.4751601,10.0308185 17.4751601,7.80540925 C17.4751601,7.69202847 17.458363,7.58120996 17.4384342,7.46967972 C17.0684698,9.5375089 13.3258363,11.1631317 8.75544484,11.1631317 C4.18505338,11.1631317 0.443060498,9.53814947 0.072455516,7.46967972 C0.0525266904,7.58113879 0.0357295374,7.69202847 0.0357295374,7.80540925 C0.0357295374,10.0301779 3.93900356,11.8345196 8.75544484,11.8345196 Z M8.75544484,15.5229893 C4.18505338,15.5229893 0.443060498,13.8986477 0.072455516,11.8295374 C0.0525266904,11.9409964 0.0357295374,12.0518861 0.0357295374,12.1652669 C0.0357295374,14.389395 3.93964413,16.1943772 8.75544484,16.1943772 C13.5712456,16.1943772 17.4751601,14.3906762 17.4751601,12.1652669 C17.4751601,12.0513167 17.458363,11.9410676 17.4384342,11.8295374 C17.0690391,13.896726 13.3264057,15.5229893 8.75544484,15.5229893 Z" id="Shape" fill="#B7BBBD"></path>
                    <path d="M1.90419929,18.5007117 L1.90419929,3.73701068 L0.0357295374,3.73701068 L0.0357295374,16.1937367 C0.0357295374,17.064484 0.737010676,17.8654804 1.90419929,18.5007117 Z" id="Shape" fill="#C2C5C7"></path>
                    <path d="M1.90419929,14.652242 L1.90419929,13.9770819 C0.881494662,13.3748043 0.217580071,12.6373665 0.072455516,11.8295374 C0.0525266904,11.9409964 0.0357295374,12.0518861 0.0357295374,12.1652669 C0.0357295374,13.1051246 0.737010676,13.9671174 1.90419929,14.652242 Z M1.90419929,10.2923843 L1.90419929,9.61786477 C0.881494662,9.01558719 0.217580071,8.2775089 0.072455516,7.46911032 C0.0525266904,7.58120996 0.0357295374,7.69209964 0.0357295374,7.80540925 C0.0357295374,8.7452669 0.737010676,9.60725979 1.90419929,10.2923843 Z" id="Shape" fill="#B2B5B7"></path>
                    <path d="M8.75544484,0 C13.5712456,0 17.4751601,1.67359431 17.4751601,3.73701068 C17.4751601,5.80042705 13.5712456,7.47402135 8.75544484,7.47402135 C3.93964413,7.47402135 0.0357295374,5.80049822 0.0357295374,3.73701068 C0.0357295374,1.67352313 3.93900356,0 8.75544484,0 Z" id="Shape" fill="#E4E7E7"></path>
                </g>
            </g>
        </g>
    </g>
</svg>