<?xml version="1.0" encoding="iso-8859-1"?>
<!-- Generator: Adobe Illustrator 19.0.0, SVG Export Plug-In . SVG Version: 6.00 Build 0)  -->
<svg version="1.1" id="Layer_1" xmlns="http://www.w3.org/2000/svg" xmlns:xlink="http://www.w3.org/1999/xlink" x="0px" y="0px"
	 viewBox="0 0 512 512" style="enable-background:new 0 0 512 512;" xml:space="preserve">
<path style="fill:#EFEFEF;" d="M448,0H64v512h384V0z M104,44.888h53.336v32H104V44.888z M405.328,466.216H106.664v-10.664h298.664
	V466.216z M405.328,444.888H106.664v-10.664h298.664V444.888z M405.328,423.552H106.664v-10.664h298.664V423.552z M405.328,380.888
	H106.664v-10.664h298.664V380.888z M408,322.216c0,8.8-7.2,16-16,16H275.632l0,0h-39.256l0,0H120c-8.8,0-16-7.2-16-16V124.888
	c0-8.8,7.2-16,16-16h272c8.8,0,16,7.2,16,16V322.216z M408,76.888H189.336v-32H408V76.888z"/>
<rect x="106.664" y="370.224" style="fill:#2D2D2D;" width="298.64" height="10.664"/>
<g>
	<rect x="106.664" y="412.888" style="fill:#C9C9C9;" width="298.64" height="10.664"/>
	<rect x="106.664" y="434.224" style="fill:#C9C9C9;" width="298.64" height="10.664"/>
	<rect x="106.664" y="455.552" style="fill:#C9C9C9;" width="298.64" height="10.664"/>
</g>
<g>
	<path style="fill:#DB2B42;" d="M392,108.888H120c-8.8,0-16,7.2-16,16v197.336c0,8.8,7.2,16,16,16h116.368V234.672l-42.088,42.912
		l-28.016-27.336L256,158.76l89.728,91.488l-28.016,27.336l-42.088-42.912v103.552H392c8.8,0,16-7.2,16-16V124.888
		C408,116.088,400.8,108.888,392,108.888z"/>
	<rect x="104" y="44.888" style="fill:#DB2B42;" width="53.336" height="32"/>
</g>
<rect x="189.336" y="44.888" style="fill:#C9C9C9;" width="218.664" height="32"/>
<polygon style="fill:#FFFFFF;" points="317.712,277.584 345.728,250.248 256,158.76 166.272,250.248 194.288,277.584 
	236.368,234.672 236.368,338.216 236.368,338.216 275.632,338.216 275.632,338.216 275.632,234.672 "/>
<g>
</g>
<g>
</g>
<g>
</g>
<g>
</g>
<g>
</g>
<g>
</g>
<g>
</g>
<g>
</g>
<g>
</g>
<g>
</g>
<g>
</g>
<g>
</g>
<g>
</g>
<g>
</g>
<g>
</g>
</svg>
