<?xml version="1.0" encoding="UTF-8"?>
<svg width="20px" height="17px" viewBox="0 0 20 17" version="1.1" xmlns="http://www.w3.org/2000/svg" xmlns:xlink="http://www.w3.org/1999/xlink">
    <!-- Generator: Sketch 50.2 (55047) - http://www.bohemiancoding.com/sketch -->
    <title>health</title>
    <desc>Created with Sketch.</desc>
    <defs></defs>
    <g id="team" stroke="none" stroke-width="1" fill="none" fill-rule="evenodd">
        <g id="create-team" transform="translate(-883.000000, -415.000000)" fill-rule="nonzero">
            <g id="Group-5" transform="translate(852.000000, 201.000000)">
                <g id="health" transform="translate(31.000000, 214.000000)">
                    <path d="M7.43287411,3.74111475 C7.49320665,3.57668852 7.6623753,3.47543169 7.83966746,3.49814481 C8.0168171,3.52071858 8.15401425,3.66089891 8.16926366,3.83493989 L8.77657957,10.7726585 L9.91382423,6.76460656 C9.96033254,6.60078415 10.1139192,6.48810109 10.2884561,6.49246721 C10.4622803,6.49622951 10.6113539,6.61481148 10.6504038,6.7804918 L11.2837055,9.46672404 L12.3649881,5.02480055 C12.4073159,4.8509918 12.5703563,4.73194536 12.7525891,4.73965574 C12.9351069,4.74806284 13.0856532,4.88229781 13.1110689,5.05921858 L13.9180523,10.6841749 L14.2798575,9.54099454 C14.3291211,9.38539344 14.476342,9.27925956 14.6429454,9.27925956 L18.7088361,9.27925956 C19.3056057,8.40074044 19.7302613,7.5260765 19.8715439,6.6847623 C20.1816627,4.82270492 19.8791449,3.28703825 18.9703563,2.12114481 C18.0526841,0.944150273 16.6587173,0.272603825 14.7048456,0.068 C14.5171021,0.0495601093 14.3455582,0.0408743169 14.1755344,0.0408743169 C12.7927316,0.0408743169 11.3985273,0.543674863 10.3270784,1.39413934 C9.25714964,0.543674863 7.86171021,0.0408743169 6.4815677,0.0408743169 C6.30983373,0.0408743169 6.13980998,0.0495601093 5.95078385,0.068 C3.99695962,0.272603825 2.60152019,0.944150273 1.68503563,2.12114481 C0.776484561,3.2870847 0.47368171,4.82270492 0.783895487,6.6847623 C0.927410926,7.53936066 1.36294537,8.42809836 1.97415677,9.32018033 L5.38551069,9.32018033 L7.43287411,3.74111475 Z" id="Shape" fill="#E74424"></path>
                    <path d="M14.1411401,12.493235 C14.0885036,12.6595191 13.9244656,12.767929 13.7475534,12.7537623 C13.5701663,12.7397814 13.4264133,12.6073115 13.4017102,12.4349891 L12.6381473,7.11254918 L11.6475534,11.181959 C11.6068409,11.3494044 11.4537767,11.4674754 11.2778622,11.4675219 C11.2773872,11.4675219 11.2769596,11.4675219 11.2765321,11.4675219 C11.1,11.466918 10.9471734,11.3475464 10.9075059,11.1794044 L10.2460808,8.37389344 L8.94432304,12.9616175 C8.89828979,13.1236749 8.74745843,13.2338497 8.5783848,13.2338962 C8.56660333,13.2338962 8.55482185,13.2333388 8.54294537,13.2322705 C8.35980998,13.2156421 8.21515439,13.0731393 8.19947743,12.8939426 L7.56042755,5.59420765 L6.01068884,9.81726776 C5.95653207,9.96487978 5.81339667,10.0633497 5.65296912,10.0633497 L2.52152019,10.0633497 C3.78522565,11.6732404 5.51705463,13.2664563 7.03463183,14.6623142 C7.03463183,14.6623142 8.32793349,15.9317404 8.71605701,16.2570628 C9.00897862,16.5023087 9.64166271,16.9952158 10.3284086,16.9952158 C11.0141568,16.9952158 11.6483135,16.5023087 11.9394774,16.2570628 C12.3276485,15.931694 13.6209026,14.6623142 13.6209026,14.6623142 C15.1512114,13.2547978 16.8994774,11.6461612 18.1658907,10.022429 L14.9232304,10.022429 L14.1411401,12.493235 Z" id="Shape" fill="#E74424"></path>
                    <path d="M19.5357245,9.27925956 L18.7088836,9.27925956 L14.6429929,9.27925956 C14.4763895,9.27925956 14.3292162,9.38539344 14.279905,9.54099454 L13.9180998,10.6841749 L13.1111164,5.05921858 C13.0857007,4.88229781 12.9351544,4.74806284 12.7526366,4.73965574 C12.5704038,4.73194536 12.4073159,4.8509918 12.3650356,5.02480055 L11.283753,9.46672404 L10.6504513,6.7804918 C10.6114014,6.61481148 10.4623278,6.49618306 10.2885036,6.49246721 C10.1139667,6.48810109 9.96038005,6.60078415 9.91387173,6.76460656 L8.77662708,10.7726585 L8.16931116,3.83493989 C8.15410926,3.66089891 8.01691211,3.52071858 7.83971496,3.49814481 C7.6624228,3.47543169 7.49325416,3.57668852 7.43292162,3.74111475 L5.38555819,9.32018033 L1.97420428,9.32018033 L0.380047506,9.32018033 C0.170166271,9.32018033 0,9.48655738 0,9.69176503 C0,9.89697268 0.170166271,10.0633497 0.380047506,10.0633497 L2.52152019,10.0633497 L5.65296912,10.0633497 C5.81334917,10.0633497 5.95653207,9.96487978 6.01068884,9.81726776 L7.56042755,5.59420765 L8.19947743,12.8939426 C8.21515439,13.0731393 8.35980998,13.2155956 8.54294537,13.2322705 C8.55482185,13.2333388 8.56660333,13.2338962 8.5783848,13.2338962 C8.74750594,13.2338962 8.89828979,13.1236749 8.94432304,12.9616175 L10.2460808,8.37389344 L10.9075059,11.1794044 C10.9471734,11.3475929 11.1,11.466918 11.2765321,11.4675219 C11.2770071,11.4675219 11.2774347,11.4675219 11.2778622,11.4675219 C11.4537767,11.4675219 11.6068409,11.3494044 11.6475534,11.181959 L12.6381473,7.11254918 L13.4017102,12.4349891 C13.4264608,12.6073115 13.5701663,12.7397814 13.7475534,12.7537623 C13.9245131,12.767929 14.0885036,12.6595191 14.1411401,12.493235 L14.9231829,10.022429 L18.1658432,10.022429 L19.5357245,10.022429 C19.7456057,10.022429 19.915772,9.85605191 19.915772,9.65084426 C19.915772,9.44563661 19.7456057,9.27925956 19.5357245,9.27925956 Z" id="Shape" fill="#F7F1E6"></path>
                </g>
            </g>
        </g>
    </g>
</svg>