<?xml version="1.0" encoding="UTF-8"?>
<svg width="20px" height="20px" viewBox="0 0 20 20" version="1.1" xmlns="http://www.w3.org/2000/svg" xmlns:xlink="http://www.w3.org/1999/xlink">
    <!-- Generator: Sketch 50.2 (55047) - http://www.bohemiancoding.com/sketch -->
    <title>summary</title>
    <desc>Created with Sketch.</desc>
    <defs></defs>
    <g id="team" stroke="none" stroke-width="1" fill="none" fill-rule="evenodd">
        <g id="create-team" transform="translate(-883.000000, -367.000000)" fill-rule="nonzero">
            <g id="Group-5" transform="translate(852.000000, 201.000000)">
                <g id="summary" transform="translate(31.000000, 166.000000)">
                    <path d="M16.3357277,10.6948235 L9.27164319,10.6948235 L9.27164319,3.61411765 C9.27164319,3.19614118 8.95276995,2.87656471 8.5358216,2.87656471 C6.25469484,2.87656471 4.09624413,3.76164706 2.50192488,5.38432941 C0.883004695,7.03152941 0,9.17049412 0,11.4324235 C0,16.1528941 3.82638498,19.9882824 8.53577465,19.9882824 C10.8169014,19.9882824 12.9753521,19.1032 14.5696714,17.4805176 C16.1885446,15.8332706 17.0715493,13.6943059 17.0715493,11.4324235 C17.0715493,11.0144471 16.752723,10.6948235 16.3357277,10.6948235 Z" id="Shape" fill="#4DCFE0"></path>
                    <path d="M17.4640376,2.53232941 C15.8206573,0.909647059 13.6867136,0.0245647059 11.4301408,0.0245647059 C11.0131455,0.0245647059 10.6943192,0.344188235 10.6943192,0.762117647 L10.6943192,8.58042353 C10.6943192,8.9984 11.0131925,9.31797647 11.4301408,9.31797647 L19.2300469,9.31797647 C19.6470423,9.31797647 19.9658685,8.99835294 19.9658685,8.58042353 C19.9658685,6.31854118 19.0828638,4.17957647 17.4640376,2.53232941 Z" id="Shape" fill="#D4E1F4"></path>
                </g>
            </g>
        </g>
    </g>
</svg>