<?xml version="1.0" encoding="UTF-8"?>
<svg width="20px" height="19px" viewBox="0 0 20 19" version="1.1" xmlns="http://www.w3.org/2000/svg" xmlns:xlink="http://www.w3.org/1999/xlink">
    <!-- Generator: Sketch 50.2 (55047) - http://www.bohemiancoding.com/sketch -->
    <title>web-application</title>
    <desc>Created with Sketch.</desc>
    <defs></defs>
    <g id="team" stroke="none" stroke-width="1" fill="none" fill-rule="evenodd">
        <g id="create-team" transform="translate(-884.000000, -458.000000)" fill-rule="nonzero">
            <g id="Group-5" transform="translate(852.000000, 201.000000)">
                <g id="web-application" transform="translate(32.000000, 257.000000)">
                    <path d="M14.1103704,18.9739644 L5.85064327,18.9739644 C5.85064327,18.1988598 6.46701754,17.5704289 7.22725146,17.5704289 L12.7337232,17.5704289 C13.4939961,17.5703891 14.1103704,18.1988598 14.1103704,18.9739644" id="Shape" fill="#E8EDEE"></path>
                    <polygon id="Shape" fill="#B0B6BB" points="12.3895906 17.5703891 7.571423 17.5703891 8.2597271 14.763318 11.7012865 14.763318"></polygon>
                    <path d="M19.9610526,11.9562071 L0,11.9562071 L0,1.254159 C0,0.575882845 0.539298246,0.0260355649 1.2045614,0.0260355649 L18.7564912,0.0260355649 C19.4217544,0.0260355649 19.9610526,0.575882845 19.9610526,1.254159 L19.9610526,11.9562071 Z" id="Shape" fill="#38454F"></path>
                    <path d="M18.7564522,14.763318 L1.2045614,14.763318 C0.539298246,14.763318 0,14.2134707 0,13.5351946 L0,11.9562071 L19.9610136,11.9562071 L19.9610136,13.5351946 C19.9610136,14.2134707 19.4217154,14.763318 18.7564522,14.763318" id="Shape" fill="#E8EDEE"></path>
                    <g id="Group" transform="translate(2.729045, 1.391213)" fill="#EA6148">
                        <path d="M14.1345809,9.16145816 L8.97224172,9.16145816 C8.78191033,9.16145816 8.62807018,9.00425105 8.62807018,8.81055439 C8.62807018,8.61685774 8.78191033,8.45965063 8.97224172,8.45965063 L14.1345809,8.45965063 C14.3249123,8.45965063 14.4787524,8.61685774 14.4787524,8.81055439 C14.4787135,9.00425105 14.3248733,9.16145816 14.1345809,9.16145816" id="Shape"></path>
                        <path d="M3.80990253,7.05611506 L0.36834308,7.05611506 C0.178011696,7.05611506 0.02417154,6.89890795 0.02417154,6.7052113 C0.02417154,6.51151464 0.178011696,6.35430753 0.36834308,6.35430753 L3.80990253,6.35430753 C4.00023392,6.35430753 4.15407407,6.51151464 4.15407407,6.7052113 C4.15407407,6.89890795 4.00023392,7.05611506 3.80990253,7.05611506" id="Shape"></path>
                        <path d="M12.4138012,7.05611506 L7.25146199,7.05611506 C7.0611306,7.05611506 6.90729045,6.89890795 6.90729045,6.7052113 C6.90729045,6.51151464 7.0611306,6.35430753 7.25146199,6.35430753 L12.4138012,6.35430753 C12.6041326,6.35430753 12.7579727,6.51151464 12.7579727,6.7052113 C12.7579337,6.89890795 12.6040936,7.05611506 12.4138012,7.05611506" id="Shape"></path>
                        <path d="M5.53068226,7.05611506 C5.48592593,7.05611506 5.44120858,7.04558159 5.39992203,7.0280523 C5.35516569,7.01052301 5.32077973,6.98595816 5.28635478,6.95435774 C5.22405458,6.88769874 5.18654971,6.7999728 5.18654971,6.7052113 C5.18654971,6.61044979 5.22405458,6.5227636 5.28635478,6.45606485 C5.32077973,6.42450418 5.35520468,6.39993933 5.39992203,6.38237029 C5.52346979,6.32974268 5.67867446,6.35780544 5.77504873,6.45606485 C5.83699805,6.52272385 5.8748538,6.6139477 5.8748538,6.7052113 C5.8748538,6.79643515 5.83699805,6.887659 5.77504873,6.95435774 C5.70962963,7.01751883 5.62015595,7.05611506 5.53068226,7.05611506" id="Shape"></path>
                        <path d="M7.25146199,9.16145816 L2.08912281,9.16145816 C1.89879142,9.16145816 1.74495127,9.00425105 1.74495127,8.81055439 C1.74495127,8.61685774 1.89879142,8.45965063 2.08912281,8.45965063 L7.25146199,8.45965063 C7.44179337,8.45965063 7.59563353,8.61685774 7.59563353,8.81055439 C7.59563353,9.00425105 7.44179337,9.16145816 7.25146199,9.16145816" id="Shape"></path>
                        <path d="M0.36834308,9.16145816 C0.323586745,9.16145816 0.278869396,9.15092469 0.237582846,9.1333954 C0.196296296,9.11586611 0.158440546,9.09130126 0.124015595,9.05970084 C0.0617153996,8.99304184 0.0242105263,8.9053159 0.0242105263,8.81055439 C0.0242105263,8.76492259 0.0345419103,8.71933054 0.0517348928,8.6772364 C0.0689278752,8.6316046 0.0930214425,8.59654603 0.124015595,8.5614477 C0.20662768,8.48075732 0.323625731,8.445659 0.433411306,8.46672594 C0.45785575,8.47022385 0.478167641,8.47725941 0.4991423,8.48779289 C0.519454191,8.49482845 0.54042885,8.50532218 0.557660819,8.51935356 C0.57797271,8.53338494 0.595516569,8.54741632 0.612709552,8.5614477 C0.643664717,8.59654603 0.667758285,8.63164435 0.684990253,8.6772364 C0.702183236,8.71933054 0.71251462,8.76496234 0.71251462,8.81055439 C0.71251462,8.90527615 0.674658869,8.99300209 0.612709552,9.05970084 C0.595516569,9.07373222 0.577933723,9.0877636 0.557660819,9.10179498 C0.540467836,9.11582636 0.519454191,9.12635983 0.4991423,9.13335565 C0.478167641,9.14388912 0.45785575,9.15088494 0.433411306,9.15442259 C0.413099415,9.1579205 0.389005848,9.16145816 0.36834308,9.16145816" id="Shape"></path>
                        <path d="M14.1345809,7.05611506 C14.1136062,7.05611506 14.0898246,7.05261715 14.0692008,7.0490795 C14.0451072,7.04558159 14.0244444,7.03854603 14.0038207,7.02801255 C13.9831579,7.02097699 13.9625341,7.01048326 13.9415205,6.99645188 C13.9246394,6.9824205 13.9074464,6.96838912 13.8902534,6.95435774 C13.8279532,6.88769874 13.7904483,6.7964749 13.7904483,6.7052113 C13.7904483,6.61398745 13.8279532,6.5227636 13.8902534,6.45606485 L13.9415205,6.41397071 C13.9625341,6.39993933 13.9831579,6.38940586 14.0038207,6.38241004 C14.0244834,6.37187657 14.0451072,6.36488075 14.0692008,6.3613431 C14.1793372,6.33677824 14.2994542,6.37537448 14.3789474,6.45606485 C14.3927096,6.47359414 14.4064717,6.49116318 14.4202339,6.51219038 C14.4339961,6.52971967 14.4439766,6.55078661 14.4511891,6.57185356 C14.4615205,6.5929205 14.4683821,6.6139477 14.471501,6.63851255 C14.4752827,6.6595795 14.4787135,6.68414435 14.4787135,6.70517155 C14.4787135,6.72619874 14.4752827,6.75080335 14.471501,6.7753682 C14.4684211,6.79643515 14.4615205,6.81746234 14.4511891,6.83852929 C14.4439766,6.85959623 14.4339961,6.88062343 14.4202339,6.90169038 C14.4064717,6.91921967 14.3927096,6.9367887 14.3789474,6.95431799 C14.3617544,6.96834937 14.3441715,6.98238075 14.3273294,6.99641213 C14.3066667,7.01044351 14.285692,7.02097699 14.2653801,7.0279728 C14.2444055,7.03850628 14.2240936,7.04550209 14.1996491,7.04903975 C14.1792982,7.05261715 14.1552047,7.05611506 14.1345809,7.05611506" id="Shape"></path>
                        <path d="M14.1345809,2.84546862 L8.97224172,2.84546862 C8.78191033,2.84546862 8.62807018,2.68826151 8.62807018,2.49456485 C8.62807018,2.3008682 8.78191033,2.14366109 8.97224172,2.14366109 L14.1345809,2.14366109 C14.3249123,2.14366109 14.4787524,2.3008682 14.4787524,2.49456485 C14.4787524,2.68826151 14.3248733,2.84546862 14.1345809,2.84546862" id="Shape"></path>
                        <path d="M14.1345809,4.95081172 L10.6930214,4.95081172 C10.5026901,4.95081172 10.3488499,4.7936046 10.3488499,4.59990795 C10.3488499,4.4062113 10.5026901,4.24900418 10.6930214,4.24900418 L14.1345809,4.24900418 C14.3249123,4.24900418 14.4787524,4.4062113 14.4787524,4.59990795 C14.4787524,4.7936046 14.3248733,4.95081172 14.1345809,4.95081172" id="Shape"></path>
                        <path d="M7.93976608,4.95081172 L7.25146199,4.95081172 C7.0611306,4.95081172 6.90729045,4.7936046 6.90729045,4.59990795 C6.90729045,4.4062113 7.0611306,4.24900418 7.25146199,4.24900418 L7.93976608,4.24900418 C8.13009747,4.24900418 8.28393762,4.4062113 8.28393762,4.59990795 C8.28393762,4.7936046 8.13009747,4.95081172 7.93976608,4.95081172" id="Shape"></path>
                        <path d="M12.4138012,0.740165272 L7.25146199,0.740165272 C7.0611306,0.740165272 6.90729045,0.582958159 6.90729045,0.389261506 C6.90729045,0.195564854 7.0611306,0.0383577406 7.25146199,0.0383577406 L12.4138012,0.0383577406 C12.6041326,0.0383577406 12.7579727,0.195564854 12.7579727,0.389261506 C12.7579727,0.582958159 12.6040936,0.740165272 12.4138012,0.740165272" id="Shape"></path>
                        <path d="M14.1345809,0.740165272 C14.1136062,0.740165272 14.0898246,0.736667364 14.0692008,0.733129707 C14.0451072,0.729631799 14.0244444,0.722596234 14.0038207,0.712062762 C13.9831579,0.705027197 13.9625341,0.694533473 13.9415205,0.680502092 C13.9246394,0.666470711 13.9074464,0.652439331 13.8902534,0.63840795 C13.8279532,0.571748954 13.7904483,0.480525105 13.7904483,0.389261506 C13.7904483,0.298037657 13.8279532,0.206813808 13.8902534,0.140115063 L13.9415205,0.0980209205 C13.9625341,0.0839895397 13.9831579,0.0734560669 14.0038207,0.066460251 C14.0244834,0.0559267782 14.0451072,0.0489309623 14.0692008,0.0453933054 C14.1793372,0.0208284519 14.2994542,0.0594246862 14.3789474,0.140115063 C14.3927096,0.157644351 14.4064717,0.175213389 14.4202339,0.196240586 C14.4339961,0.213769874 14.4439766,0.23483682 14.4511891,0.255903766 C14.4615205,0.276970711 14.4683821,0.297997908 14.471501,0.322562762 C14.4752827,0.343629707 14.4787135,0.368194561 14.4787135,0.389221757 C14.4787135,0.410248954 14.4752827,0.434853556 14.471501,0.45941841 C14.4684211,0.480485356 14.4615205,0.501512552 14.4511891,0.522579498 C14.4439766,0.543646444 14.4339961,0.56467364 14.4202339,0.585740586 C14.4064717,0.603269874 14.3927096,0.620838912 14.3789474,0.638368201 C14.3617544,0.652399582 14.3441715,0.666430962 14.3273294,0.680462343 C14.3066667,0.694493724 14.285692,0.705027197 14.2653801,0.712023013 C14.2444055,0.722556485 14.2240936,0.729552301 14.1996491,0.733089958 C14.1792982,0.736627615 14.1552047,0.740165272 14.1345809,0.740165272" id="Shape"></path>
                        <path d="M7.59563353,2.84546862 C7.50615984,2.84546862 7.41633528,2.80687238 7.35126706,2.7437113 C7.32031189,2.70861297 7.29621832,2.67001674 7.27898635,2.62792259 C7.26175439,2.58582845 7.25146199,2.54019665 7.25146199,2.4946046 C7.25146199,2.4489728 7.26179337,2.40338075 7.27898635,2.36128661 C7.29617934,2.31919247 7.3202729,2.28059623 7.35126706,2.24549791 C7.43040936,2.16480753 7.55087719,2.12970921 7.66066277,2.15077615 C7.68510721,2.15427406 7.7054191,2.16130962 7.72639376,2.1718431 C7.74670565,2.17887866 7.76768031,2.18937238 7.78491228,2.20340377 C7.80522417,2.21743515 7.82276803,2.23146653 7.83653021,2.24549791 C7.87095517,2.28059623 7.89504873,2.31919247 7.91224172,2.36128661 C7.9294347,2.40338075 7.93976608,2.44901255 7.93976608,2.4946046 C7.93976608,2.5402364 7.9294347,2.58582845 7.91224172,2.62792259 C7.89504873,2.67001674 7.87095517,2.70861297 7.83653021,2.7437113 C7.82276803,2.75774268 7.80522417,2.77177406 7.78491228,2.78580544 C7.7677193,2.79983682 7.74670565,2.81037029 7.72639376,2.81736611 C7.7054191,2.82789958 7.68510721,2.8348954 7.66066277,2.83843305 C7.64035088,2.84197071 7.61625731,2.84546862 7.59563353,2.84546862" id="Shape"></path>
                        <path d="M9.31641326,4.95081172 C9.22315789,4.95081172 9.13711501,4.91221548 9.07204678,4.84905439 C9.00974659,4.7823954 8.97224172,4.69117155 8.97224172,4.59990795 C8.97224172,4.5086841 9.00974659,4.41746025 9.07204678,4.35076151 C9.19937622,4.22094142 9.43341131,4.22094142 9.56074074,4.35076151 C9.62269006,4.4174205 9.66054581,4.50864435 9.66054581,4.59990795 C9.66054581,4.6244728 9.65711501,4.64553975 9.65333333,4.6701046 C9.65025341,4.69117155 9.64335283,4.71219874 9.63302144,4.73326569 C9.62580897,4.75433264 9.61582846,4.77535983 9.60206628,4.79642678 C9.58830409,4.81395607 9.57454191,4.8315251 9.56077973,4.84905439 C9.49536062,4.91221548 9.40931774,4.95081172 9.31641326,4.95081172" id="Shape"></path>
                    </g>
                    <polygon id="Shape" fill="#ECBA16" points="3.09738791 6.3420251 7.91555556 6.3420251 7.91555556 1.42961088 3.09738791 1.42961088"></polygon>
                </g>
            </g>
        </g>
    </g>
</svg>